<?xml version="1.0" encoding="UTF-8"?>
<svg width="120" height="120" viewBox="0 0 120 120" fill="none" xmlns="http://www.w3.org/2000/svg">
  <style>
    @keyframes spin {
      0% { transform: rotate(0deg); }
      100% { transform: rotate(360deg); }
    }
    .spinner {
      transform-origin: center;
      animation: spin 20s linear infinite;
    }
    .inner-spinner {
      transform-origin: center;
      animation: spin 10s linear infinite reverse;
    }
  </style>
  <circle cx="60" cy="60" r="60" fill="url(#paint0_linear)"/>
  <g class="spinner">
    <path d="M60 10C32.4 10 10 32.4 10 60C10 87.6 32.4 110 60 110C87.6 110 110 87.6 110 60C110 32.4 87.6 10 60 10ZM60 100C37.9 100 20 82.1 20 60C20 37.9 37.9 20 60 20C82.1 20 100 37.9 100 60C100 82.1 82.1 100 60 100Z" fill="rgba(255,255,255,0.7)"/>
    <circle cx="60" cy="20" r="5" fill="#4CAF50"/>
    <circle cx="93.6" cy="39.9" r="5" fill="#2196F3"/>
    <circle cx="93.6" cy="80.1" r="5" fill="#FF9800"/>
    <circle cx="60" cy="100" r="5" fill="#F44336"/>
    <circle cx="26.4" cy="80.1" r="5" fill="#9C27B0"/>
    <circle cx="26.4" cy="39.9" r="5" fill="#FFEB3B"/>
  </g>
  <g class="inner-spinner">
    <circle cx="60" cy="60" r="30" stroke="#FFFFFF" stroke-width="2" stroke-dasharray="10 5" fill="none"/>
    <circle cx="60" cy="35" r="4" fill="#FFFFFF"/>
    <circle cx="85" cy="60" r="4" fill="#FFFFFF"/>
    <circle cx="60" cy="85" r="4" fill="#FFFFFF"/>
    <circle cx="35" cy="60" r="4" fill="#FFFFFF"/>
  </g>
  <text x="60" y="65" text-anchor="middle" fill="#FFFFFF" font-family="Arial" font-weight="bold" font-size="16">DATA</text>
  <defs>
    <linearGradient id="paint0_linear" x1="0" y1="0" x2="120" y2="120" gradientUnits="userSpaceOnUse">
      <stop stop-color="#4CAF50"/>
      <stop offset="1" stop-color="#2196F3"/>
    </linearGradient>
  </defs>
</svg>